<?xml version="1.0" encoding="UTF-8"?>
<svg id="a" data-name="favicon" xmlns="http://www.w3.org/2000/svg" width="140" height="140" viewBox="0 0 140 140">
  <defs>
    <style>
      .b {
        fill: #e51785;
      }
    </style>
  </defs>
  <path class="b" d="m54.6362305,124.1064453c0,2.1162109-.4746094,3.6479492-1.4194336,4.5927734-.9472656.9472656-2.4790039,1.4194336-4.5922852,1.4194336h-24.5493164c-2.1162109,0-3.6474609-.472168-4.5922852-1.4194336-.9472656-.9448242-1.4194336-2.4765625-1.4194336-4.5927734v-44.0878906c0-3.3398438.5268555-7.1806641,1.5864258-11.5229492,1.0566406-4.3417969,2.6982422-9.4067383,4.9262695-15.1967773l14.5292969-37.9091797c.6679688-1.8916016,1.6958008-3.2827148,3.0893555-4.1748047,1.3911133-.8901367,3.1992188-1.3364258,5.4277344-1.3364258h44.9228516c2.1137695,0,3.8671875.4462891,5.2607422,1.3364258,1.390625.8920898,2.4213867,2.2832031,3.0893555,4.1748047l14.5288086,37.9091797c2.2260742,5.7900391,3.8671875,10.8549805,4.9267578,15.1967773,1.0566406,4.3422852,1.5864258,8.1831055,1.5864258,11.5229492v44.0878906c0,2.1162109-.4750977,3.6479492-1.4194336,4.5927734-.9472656.9472656-2.4790039,1.4194336-4.5927734,1.4194336h-25.2167969c-2.2285156,0-3.8696289-.472168-4.9267578-1.4194336-1.059082-.9448242-1.5864258-2.4765625-1.5864258-4.5927734v-23.3798828h-29.559082v23.3798828Zm9.519043-79.1577148l-7.8486328,25.3837891h26.21875l-7.8491211-25.3837891c-.4462891-1.0019531-.918457-1.7250977-1.4194336-2.1708984-.5009766-.4438477-1.0854492-.6679688-1.753418-.6679688h-4.1748047c-.6679688,0-1.2529297.2241211-1.7539062.6679688-.5009766.4458008-.9755859,1.1689453-1.4194336,2.1708984Z"/>
</svg>