<?xml version="1.0" encoding="UTF-8"?>
<svg xmlns="http://www.w3.org/2000/svg" width="300" height="300" viewBox="0 0 300 300">
  <defs>
    <style>
      .c {
        fill: none;
      }

      .c, .d {
        stroke: #000;
        stroke-miterlimit: 10;
        stroke-width: 4px;
      }

      .d {
        fill: #fff;
      }
    </style>
  </defs>
  <g id="a" data-name="logo">
    <polygon class="d" points="10 80 150 90 290 80 280 140 20 140 10 80"/>
    <path class="d" d="m200,50s80,20,80,90c0,100-100,150-130,150S20,240,20,140c0-70,80-90,80-90,0,0,100,0,100,0Z"/>
    <polygon class="d" points="150 10 200 50 150 70 100 50 150 10"/>
    <path class="d" d="m150,90s30-10,50-10c30,0,60,20,60,60s-30,60-60,60c-20,0-50-10-50-10,0,0-30,10-50,10-30,0-60-20-60-60s30-60,60-60c20,0,50,10,50,10Z"/>
    <path class="d" d="m150,110s30-10,50-10,40,10,40,40-20,40-40,40-50-10-50-10c0,0-30,10-50,10s-40-10-40-40,20-40,40-40,50,10,50,10Z"/>
    <path class="d" d="m150,160l10-10s40,40,40,70-30,40-50,40-50-10-50-40,40-70,40-70l10,10Z"/>
  </g>
  <g id="b" data-name="error">
    <path class="c" d="m120,230s10-10,30-10,30,10,30,10"/>
    <line class="c" x1="200" y1="130" x2="180" y2="150"/>
    <line class="c" x1="180" y1="130" x2="200" y2="150"/>
    <line class="c" x1="120" y1="130" x2="100" y2="150"/>
    <line class="c" x1="100" y1="130" x2="120" y2="150"/>
  </g>
</svg>