<?xml version="1.0" encoding="UTF-8"?>
<svg xmlns="http://www.w3.org/2000/svg" width="360" height="500" viewBox="0 0 360 500">
  <defs>
    <style>
      .c {
        fill: #17a8e5;
      }

      .c, .d, .e, .f, .g, .h, .i {
        stroke: #000;
        stroke-miterlimit: 10;
      }

      .c, .e, .f, .g, .h, .i {
        stroke-width: 4px;
      }

      .d {
        fill: none;
        stroke-width: 3px;
      }

      .e {
        fill: #e51785;
      }

      .f {
        fill: #fff;
      }

      .g {
        fill: #e5bc17;
      }

      .h {
        fill: #e56317;
      }
    </style>
  </defs>
  <g id="a" data-name="vertical">
    <g>
      <g>
        <path class="d" d="m28.4091797,489.6791992v.5600586h-9.3520508c-3.621582,0-6.0200195-.5600586-7.1958008-1.6801758-1.1762695-1.1196289-1.7641602-2.9677734-1.7641602-5.5439453v-15.6796875c0-2.6503906.5966797-4.5361328,1.7919922-5.65625,1.1943359-1.1201172,3.5839844-1.6796875,7.1679688-1.6796875h9.3520508v.5595703h-9.3520508c-3.2856445,0-5.5073242.5136719-6.6640625,1.5400391-1.1572266,1.0273438-1.7358398,2.7719727-1.7358398,5.2363281v15.6796875c0,2.4272461.5600586,4.144043,1.6801758,5.1523438,1.1196289,1.0078125,3.3598633,1.5117188,6.7197266,1.5117188h9.3520508Z"/>
        <path class="d" d="m72.9287109,483.4072266c0,2.2402344-.8032227,4.0600586-2.4077148,5.4599609-1.605957,1.3999023-4.5922852,2.1000977-8.9604492,2.1000977-4.3676758,0-7.3359375-.7001953-8.9038086-2.1000977s-2.3520508-3.2197266-2.3520508-5.4599609v-16.5200195c0-2.2397461.7841797-4.0600586,2.3520508-5.4599609s4.5361328-2.1000977,8.9038086-2.1000977c4.3681641,0,7.3544922.7001953,8.9604492,2.1000977,1.6044922,1.3999023,2.4077148,3.2202148,2.4077148,5.4599609v16.5200195Zm-22.0639648,0c0,2.0913086.746582,3.7802734,2.2402344,5.0678711,1.4926758,1.2880859,4.3120117,1.9321289,8.4555664,1.9321289,4.144043,0,6.980957-.644043,8.512207-1.9321289,1.5302734-1.2875977,2.2958984-2.9765625,2.2958984-5.0678711v-16.5200195c0-2.090332-.765625-3.7797852-2.2958984-5.0678711-1.53125-1.2880859-4.3681641-1.9321289-8.512207-1.9321289-4.1435547,0-6.9628906.644043-8.4555664,1.9321289-1.4936523,1.2880859-2.2402344,2.9775391-2.2402344,5.0678711v16.5200195Z"/>
        <path class="d" d="m110.8969727,473.7192383c.671875,0,1.1567383-.1489258,1.4560547-.4477539.2983398-.2983398.7646484-.9331055,1.3999023-1.9042969l6.8320312-10.4160156c.2236328-.3725586.4760742-.6245117.7558594-.7558594.2797852-.1303711.5688477-.1958008.8681641-.1958008h.9516602c.5224609,0,.9047852.1396484,1.1479492.4199219.2426758.2797852.3642578.7192383.3642578,1.315918v28.5039062h-.5600586v-28.5039062c0-.2983398-.0654297-.5688477-.1958008-.8120117-.1313477-.2421875-.3833008-.3642578-.7563477-.3642578h-.8398438c-.2617188,0-.4858398.0375977-.671875.1123047-.1875.0751953-.3920898.2993164-.6162109.671875l-6.8320312,10.3041992c-.671875,1.0078125-1.1855469,1.6992188-1.5400391,2.0717773-.3549805.3735352-.9428711.5600586-1.7636719.5600586-.8217773,0-1.409668-.1865234-1.7641602-.5600586-.3554688-.3725586-.8681641-1.0639648-1.5400391-2.0717773l-6.8320312-10.3041992c-.2241211-.3725586-.4389648-.5966797-.644043-.671875-.2055664-.074707-.4389648-.1123047-.699707-.1123047h-.840332c-.3735352,0-.6157227.1220703-.7280273.3642578-.1118164.2431641-.1679688.5136719-.1679688.8120117v28.5039062h-.5600586v-28.5039062c0-.5966797.1210938-1.0361328.3642578-1.315918.2421875-.2802734.6064453-.4199219,1.0917969-.4199219h.9521484c.2983398,0,.5966797.0654297.8959961.1958008.2983398.1313477.5600586.3833008.7841797.7558594l6.8320312,10.4160156c.6342773.9711914,1.1005859,1.605957,1.3999023,1.9042969.2983398.2988281.7836914.4477539,1.4560547.4477539Z"/>
        <path class="d" d="m163.480957,473.7192383c.671875,0,1.1567383-.1489258,1.4560547-.4477539.2983398-.2983398.7646484-.9331055,1.3999023-1.9042969l6.8320312-10.4160156c.2236328-.3725586.4760742-.6245117.7558594-.7558594.2797852-.1303711.5688477-.1958008.8681641-.1958008h.9516602c.5224609,0,.9047852.1396484,1.1479492.4199219.2426758.2797852.3642578.7192383.3642578,1.315918v28.5039062h-.5600586v-28.5039062c0-.2983398-.0654297-.5688477-.1958008-.8120117-.1313477-.2421875-.3833008-.3642578-.7563477-.3642578h-.8398438c-.2617188,0-.4858398.0375977-.671875.1123047-.1875.0751953-.3920898.2993164-.6162109.671875l-6.8320312,10.3041992c-.671875,1.0078125-1.1855469,1.6992188-1.5400391,2.0717773-.3549805.3735352-.9428711.5600586-1.7636719.5600586-.8217773,0-1.409668-.1865234-1.7641602-.5600586-.3554688-.3725586-.8681641-1.0639648-1.5400391-2.0717773l-6.8320312-10.3041992c-.2241211-.3725586-.4389648-.5966797-.644043-.671875-.2055664-.074707-.4389648-.1123047-.699707-.1123047h-.840332c-.3735352,0-.6157227.1220703-.7280273.3642578-.1118164.2431641-.1679688.5136719-.1679688.8120117v28.5039062h-.5600586v-28.5039062c0-.5966797.1210938-1.0361328.3642578-1.315918.2421875-.2802734.6064453-.4199219,1.0917969-.4199219h.9521484c.2983398,0,.5966797.0654297.8959961.1958008.2983398.1313477.5600586.3833008.7841797.7558594l6.8320312,10.4160156c.6342773.9711914,1.1005859,1.605957,1.3999023,1.9042969.2983398.2988281.7836914.4477539,1.4560547.4477539Z"/>
        <path class="d" d="m221.3286133,489.6791992v.5600586h-18.8720703v-30.2397461h18.8720703v.5595703h-18.3120117v14.0561523h13.7763672v.5600586h-13.7763672v14.5039062h18.3120117Z"/>
        <path class="d" d="m244.6245117,490.2392578h-.5600586v-30.2397461h12.7680664c2.1645508,0,3.7700195.6069336,4.815918,1.8198242,1.0444336,1.2133789,1.5678711,2.7353516,1.5678711,4.5639648v3.8637695c0,1.7177734-.2241211,3.1274414-.671875,4.2280273-.4482422,1.1020508-1.3442383,1.8579102-2.6879883,2.2680664h.6157227c2.2768555,0,3.9760742.5136719,5.0961914,1.5400391,1.1201172,1.0273438,1.6801758,2.5112305,1.6801758,4.4521484v7.5039062h-.5600586v-7.5039062c0-1.8286133-.5039062-3.2006836-1.512207-4.1162109-1.0078125-.9140625-2.5756836-1.3720703-4.7041016-1.3720703h-15.8476562v12.9921875Zm12.2080078-29.6801758h-12.2080078v16.184082h12.2080078c2.3139648,0,3.8637695-.5600586,4.6479492-1.6796875.7836914-1.1201172,1.1757812-2.706543,1.1757812-4.7602539v-3.9199219c0-1.7167969-.4760742-3.1166992-1.4277344-4.2001953-.9521484-1.0820312-2.4179688-1.6240234-4.3959961-1.6240234Z"/>
        <path class="d" d="m308.4082031,489.6791992v.5600586h-9.3520508c-3.621582,0-6.0200195-.5600586-7.1958008-1.6801758-1.1762695-1.1196289-1.7641602-2.9677734-1.7641602-5.5439453v-15.6796875c0-2.6503906.5966797-4.5361328,1.7919922-5.65625,1.1943359-1.1201172,3.5839844-1.6796875,7.1679688-1.6796875h9.3520508v.5595703h-9.3520508c-3.2856445,0-5.5073242.5136719-6.6640625,1.5400391-1.1572266,1.0273438-1.7358398,2.7719727-1.7358398,5.2363281v15.6796875c0,2.4272461.5600586,4.144043,1.6801758,5.1523438,1.1196289,1.0078125,3.3598633,1.5117188,6.7197266,1.5117188h9.3520508Z"/>
        <path class="d" d="m349.847168,489.6791992v.5600586h-18.8720703v-30.2397461h18.8720703v.5595703h-18.3120117v14.0561523h13.7763672v.5600586h-13.7763672v14.5039062h18.3120117Z"/>
      </g>
      <g>
        <path class="e" d="m46.7353516,434.2255859c0,2.1162109-.4746094,3.6479492-1.4194336,4.5927734-.9472656.9472656-2.4790039,1.4194336-4.5922852,1.4194336h-24.5493164c-2.1162109,0-3.6474609-.472168-4.5922852-1.4194336-.9472656-.9448242-1.4194336-2.4765625-1.4194336-4.5927734v-44.0878906c0-3.3398438.5268555-7.1806641,1.5864258-11.5229492,1.0566406-4.3417969,2.6982422-9.4067383,4.9262695-15.1967773l14.5292969-37.9091797c.6679688-1.8916016,1.6958008-3.2827148,3.0893555-4.1748047,1.3911133-.8901367,3.1992188-1.3364258,5.4277344-1.3364258h44.9228516c2.1137695,0,3.8671875.4462891,5.2607422,1.3364258,1.390625.8920898,2.4213867,2.2832031,3.0893555,4.1748047l14.5288086,37.9091797c2.2260742,5.7900391,3.8671875,10.8549805,4.9267578,15.1967773,1.0566406,4.3422852,1.5864258,8.1831055,1.5864258,11.5229492v44.0878906c0,2.1162109-.4750977,3.6479492-1.4194336,4.5927734-.9472656.9472656-2.4790039,1.4194336-4.5927734,1.4194336h-25.2167969c-2.2285156,0-3.8696289-.472168-4.9267578-1.4194336-1.059082-.9448242-1.5864258-2.4765625-1.5864258-4.5927734v-23.3798828h-29.559082v23.3798828Zm9.519043-79.1577148l-7.8486328,25.3837891h26.21875l-7.8491211-25.3837891c-.4462891-1.0019531-.918457-1.7250977-1.4194336-2.1708984-.5009766-.4438477-1.0854492-.6679688-1.753418-.6679688h-4.1748047c-.6679688,0-1.2529297.2241211-1.7539062.6679688-.5009766.4458008-.9755859,1.1689453-1.4194336,2.1708984Z"/>
        <path class="e" d="m172.4858398,440.237793h-25.8847656c-2.1162109,0-3.6479492-.472168-4.5927734-1.4194336-.9472656-.9448242-1.4194336-2.4765625-1.4194336-4.5927734v-108.2158203c0-2.1137695.472168-3.6450195,1.4194336-4.5922852.9448242-.9448242,2.4765625-1.4199219,4.5927734-1.4199219h51.1020508c15.1391602,0,25.4931641,3.0063477,31.0620117,9.0180664,5.5654297,6.012207,8.3496094,13.8613281,8.3496094,23.5473633v21.3759766c0,9.6860352-2.7841797,17.534668-8.3496094,23.546875-5.5688477,6.0117188-15.9228516,9.0180664-31.0620117,9.0180664h-19.2050781v27.7216797c0,2.1162109-.4750977,3.6479492-1.4194336,4.5927734-.9472656.9472656-2.4790039,1.4194336-4.5927734,1.4194336Zm5.6782227-89.0112305v25.2172852h15.0297852c3.2280273,0,5.3442383-.8349609,6.3461914-2.5048828,1.0019531-1.6704102,1.5029297-3.5620117,1.5029297-5.6782227v-8.8510742c0-2.1132812-.5009766-4.0078125-1.5029297-5.6777344s-3.1181641-2.5053711-6.3461914-2.5053711h-15.0297852Z"/>
        <path class="e" d="m343.9931641,440.237793h-77.487793c-2.1162109,0-3.6479492-.472168-4.5927734-1.4194336-.9472656-.9448242-1.4194336-2.4765625-1.4194336-4.5927734v-108.2158203c0-2.1137695.472168-3.6450195,1.4194336-4.5922852.9448242-.9448242,2.4765625-1.4199219,4.5927734-1.4199219h77.487793c2.1137695,0,3.6455078.4750977,4.5927734,1.4199219.9443359.9472656,1.4194336,2.4785156,1.4194336,4.5922852v19.5390625c0,2.1162109-.4750977,3.6479492-1.4194336,4.5922852-.9472656.9472656-2.4790039,1.4199219-4.5927734,1.4199219h-46.0917969v12.8588867h32.5649414c2.1132812,0,3.6450195.4746094,4.5922852,1.4194336.9448242.9472656,1.4194336,2.4790039,1.4194336,4.5922852v17.8691406c0,2.1162109-.4746094,3.6479492-1.4194336,4.5922852-.9472656.9472656-2.4790039,1.4199219-4.5922852,1.4199219h-32.5649414v14.3618164h46.0917969c2.1137695,0,3.6455078.4750977,4.5927734,1.4194336.9443359.9472656,1.4194336,2.4790039,1.4194336,4.5927734v19.5385742c0,2.1162109-.4750977,3.6479492-1.4194336,4.5927734-.9472656.9472656-2.4790039,1.4194336-4.5927734,1.4194336Z"/>
      </g>
    </g>
  </g>
  <g id="b" data-name="logo">
    <polygon class="g" points="40 80 180 90 320 80 310 140 50 140 40 80"/>
    <path class="h" d="m230,50s80,20,80,90c0,100-100,150-130,150S50,240,50,140c0-70,80-90,80-90,0,0,100,0,100,0Z"/>
    <polygon class="e" points="180 10 230 50 180 70 130 50 180 10"/>
    <path class="g" d="m180,90s30-10,50-10c30,0,60,20,60,60s-30,60-60,60c-20,0-50-10-50-10,0,0-30,10-50,10-30,0-60-20-60-60s30-60,60-60c20,0,50,10,50,10Z"/>
    <path class="c" d="m180,110s30-10,50-10,40,10,40,40-20,40-40,40-50-10-50-10c0,0-30,10-50,10s-40-10-40-40,20-40,40-40,50,10,50,10Z"/>
    <path class="c" d="m180,160l10-10s40,40,40,70-30,40-50,40-50-10-50-40,40-70,40-70l10,10Z"/>
    <line class="f" x1="150" y1="220" x2="210" y2="220"/>
    <circle class="i" cx="140" cy="140" r="10"/>
    <circle class="i" cx="220" cy="140" r="10"/>
  </g>
</svg>