<?xml version="1.0" encoding="UTF-8"?>
<svg id="a" data-name="favicon" xmlns="http://www.w3.org/2000/svg" width="200" height="200" viewBox="0 0 200 200">
  <defs>
    <style>
      .b {
        fill: #17a8e5;
      }
    </style>
  </defs>
  <path class="b" d="m82.0996094,164.7983398c0,2.534668-.5688477,4.3691406-1.7001953,5.5-1.1342773,1.1347656-2.96875,1.7001953-5.5,1.7001953h-29.3999023c-2.5341797,0-4.3686523-.5654297-5.5-1.7001953-1.1342773-1.1308594-1.7001953-2.965332-1.7001953-5.5v-52.7998047c0-4,.6313477-8.6000977,1.9003906-13.7998047,1.265625-5.2001953,3.230957-11.265625,5.8999023-18.2001953l17.3999023-45.3999023c.7998047-2.265625,2.03125-3.9311523,3.7001953-5,1.6655273-1.065918,3.8310547-1.6000977,6.5-1.6000977h53.7998047c2.53125,0,4.6313477.5341797,6.2998047,1.6000977,1.6660156,1.0688477,2.9003906,2.734375,3.7001953,5l17.3999023,45.3999023c2.6655273,6.9345703,4.6313477,13,5.8999023,18.2001953,1.265625,5.199707,1.9003906,9.7998047,1.9003906,13.7998047v52.7998047c0,2.534668-.5688477,4.3691406-1.7001953,5.5-1.1342773,1.1347656-2.96875,1.7001953-5.5,1.7001953h-30.2001953c-2.668457,0-4.6342773-.5654297-5.8999023-1.7001953-1.2685547-1.1308594-1.8999023-2.965332-1.8999023-5.5v-28h-35.3999023v28Zm11.3999023-94.7998047l-9.3999023,30.3999023h31.3999023l-9.3999023-30.3999023c-.534668-1.2001953-1.1000977-2.0654297-1.7001953-2.6000977-.6000977-.53125-1.2998047-.7998047-2.1000977-.7998047h-5c-.7998047,0-1.5.2685547-2.0996094.7998047-.6000977.534668-1.1689453,1.3999023-1.7001953,2.6000977Z"/>
</svg>