<?xml version="1.0" encoding="UTF-8"?>
<svg id="a" data-name="line" xmlns="http://www.w3.org/2000/svg" width="1080" height="140" viewBox="0 0 1080 140">
  <defs>
    <style>
      .b {
        fill: none;
        stroke-width: 3px;
      }

      .b, .c {
        stroke: #fff;
        stroke-miterlimit: 10;
      }

      .c {
        fill: #17a8e5;
        stroke-width: 4px;
      }
    </style>
  </defs>
  <g>
    <path class="b" d="m396.7817383,109.918457V29.9980469h47.2119141v1.4804688h-45.7319336v42.3276367h33.7436523v1.4799805h-33.7436523v34.6323242h-1.4799805Z"/>
    <path class="b" d="m456.4248047,109.918457h-1.4799805V29.9980469h33.7441406c5.7211914,0,9.9648438,1.6049805,12.7280273,4.8100586,2.7612305,3.2075195,4.144043,7.2290039,4.144043,12.0620117v10.2124023c0,4.5390625-.5917969,8.2646484-1.7758789,11.1738281-1.184082,2.9111328-3.5522461,4.9091797-7.1040039,5.9941406h1.6279297c6.0170898,0,10.5078125,1.3574219,13.4677734,4.0698242,2.9599609,2.7148438,4.4399414,6.6367188,4.4399414,11.7661133v19.8320312h-1.4799805v-19.8320312c0-4.8334961-1.3320312-8.4594727-3.9956055-10.8779297-2.6640625-2.4169922-6.8081055-3.6259766-12.4321289-3.6259766h-41.8842773v34.3359375Zm32.2641602-78.4399414h-32.2641602v42.7719727h32.2641602c6.1166992,0,10.2119141-1.4799805,12.2841797-4.4404297,2.0717773-2.9599609,3.1079102-7.1523438,3.1079102-12.5795898v-10.3603516c0-4.5371094-1.2578125-8.2368164-3.7739258-11.0996094-2.5161133-2.8608398-6.3896484-4.2919922-11.6181641-4.2919922Z"/>
    <path class="b" d="m588.4399414,109.918457v-25.4560547h-57.7197266v25.4560547h-1.4799805v-31.5244141c0-2.7607422.2216797-5.3022461.6660156-7.621582.4438477-2.3173828,1.059082-4.5625,1.8496094-6.734375l9.472168-24.2719727c1.0844727-2.7607422,2.3173828-5.0805664,3.7001953-6.9560547,1.3803711-1.8730469,3.7485352-2.8120117,7.1040039-2.8120117h14.5039062c3.2558594,0,5.5498047.9389648,6.8818359,2.8120117,1.3320312,1.8754883,2.590332,4.2436523,3.7739258,7.1040039l10.2124023,24.1240234c.7880859,2.171875,1.4057617,4.4169922,1.8496094,6.734375.4443359,2.3193359.6660156,4.8608398.6660156,7.621582v31.5244141h-1.4799805Zm-57.7197266-31.5244141v4.5883789h57.7197266v-4.5883789c0-2.6635742-.2216797-5.1289062-.6660156-7.3999023-.4438477-2.2685547-1.0126953-4.3891602-1.7016602-6.3637695l-10.2124023-24.1240234c-1.0869141-2.5644531-2.2197266-4.7104492-3.4038086-6.4379883-1.184082-1.7250977-3.1586914-2.5898438-5.9199219-2.5898438h-14.5039062c-2.9599609,0-5.0322266.8647461-6.2163086,2.5898438-1.184082,1.7275391-2.2705078,3.824707-3.2558594,6.2900391l-9.472168,24.2719727c-.6914062,1.9746094-1.2578125,4.0952148-1.7016602,6.3637695-.4443359,2.2709961-.6660156,4.7363281-.6660156,7.3999023Z"/>
    <path class="b" d="m642.7558594,66.2583008c1.7758789,0,3.0571289-.3930664,3.8476562-1.184082.7885742-.7885742,2.0214844-2.4648438,3.7001953-5.0317383l18.0561523-27.5283203c.5917969-.9848633,1.2578125-1.6508789,1.9980469-1.9980469.7397461-.3442383,1.5029297-.5180664,2.2939453-.5180664h2.5161133c1.3803711,0,2.3911133.3701172,3.0336914,1.1103516.640625.7397461.9619141,1.9008789.9619141,3.4780273v75.3320312h-1.4799805V34.5864258c0-.7885742-.1733398-1.503418-.5180664-2.1459961-.3466797-.640625-1.0126953-.9619141-1.9975586-.9619141h-2.2202148c-.6914062,0-1.2832031.0991211-1.7758789.2958984-.4951172.1987305-1.0361328.7905273-1.6279297,1.7758789l-18.0561523,27.2319336c-1.7758789,2.6640625-3.1333008,4.4907227-4.0698242,5.4760742-.9389648.9873047-2.4931641,1.4799805-4.6621094,1.4799805-2.1713867,0-3.7255859-.4926758-4.6621094-1.4799805-.9389648-.9853516-2.2939453-2.8120117-4.0698242-5.4760742l-18.0561523-27.2319336c-.5917969-.9853516-1.1611328-1.5771484-1.7021484-1.7758789-.543457-.1967773-1.1606445-.2958984-1.8500977-.2958984h-2.2197266c-.9873047,0-1.6279297.3212891-1.9238281.9619141-.2963867.6425781-.4443359,1.3574219-.4443359,2.1459961v75.3320312h-1.4799805V34.5864258c0-1.5771484.3193359-2.7382812.9619141-3.4780273.640625-.7402344,1.6025391-1.1103516,2.8862305-1.1103516h2.5161133c.7885742,0,1.5771484.1738281,2.3676758.5180664.7885742.347168,1.4799805,1.0131836,2.0722656,1.9980469l18.0556641,27.5283203c1.6767578,2.5668945,2.9091797,4.2431641,3.7001953,5.0317383.7885742.7910156,2.0722656,1.184082,3.8481445,1.184082Z"/>
    <path class="b" d="m749.1679687,108.4384766v1.4799805h-49.8759766V29.9980469h49.8759766v1.4804688h-48.3959961v37.1479492h36.4077148v1.4799805h-36.4077148v38.3320312h48.3959961Z"/>
    <path class="b" d="m801.559082,72.1782227c1.5771484,0,2.8603516.4697266,3.8476562,1.40625.9853516.9384766,2.1206055,2.7885742,3.4042969,5.5498047l12.1357422,27.2319336c.3930664.9873047.9853516,1.5795898,1.7763672,1.7758789.7885742.1992188,1.5283203.2963867,2.2197266.2963867h.7402344c.7885742,0,1.5283203-.3193359,2.2197266-.9624023.6889648-.6401367,1.0844727-1.3549805,1.184082-2.1459961l3.7001953-16.871582c.3930664-1.8735352.6147461-4.2919922.6660156-7.2524414.0483398-2.9599609.0737305-5.5244141.0737305-7.6958008V29.9980469h1.4799805v43.6601562c0,2.1713867-.0253906,4.7358398-.0737305,7.6962891-.0512695,2.9599609-.2729492,5.3789062-.6660156,7.2519531l-3.7001953,16.7236328c-.3955078,1.5795898-1.0126953,2.7382812-1.8500977,3.4780273-.8393555.7402344-1.8500977,1.1103516-3.0336914,1.1103516h-1.0361328c-.8881836,0-1.8271484-.1713867-2.8120117-.5180664-.9873047-.3447266-1.6787109-1.0107422-2.0722656-1.9980469l-12.1357422-27.527832c-1.184082-2.6640625-2.1967773-4.3662109-3.0341797-5.1064453-.8393555-.7397461-1.8500977-1.1098633-3.0336914-1.1098633h-6.6601562c-1.184082,0-2.1967773.3701172-3.0341797,1.1098633-.8393555.7402344-1.8496094,2.4423828-3.0336914,5.1064453l-12.1362305,27.527832c-.3955078.9873047-1.0869141,1.6533203-2.0717773,1.9980469-.987793.3466797-1.9243164.5180664-2.8120117.5180664h-1.0361328c-1.184082,0-2.1967773-.3701172-3.0341797-1.1103516-.8393555-.7397461-1.456543-1.8984375-1.8496094-3.4780273l-3.7001953-16.7236328c-.3955078-1.8730469-.6176758-4.2919922-.6660156-7.2519531-.0507812-2.9604492-.0742188-5.5249023-.0742188-7.6962891V29.9980469h1.4804688v43.512207c0,2.1713867.0229492,4.7358398.0737305,7.6958008.0488281,2.9604492.2705078,5.3789062.6660156,7.2524414l3.7001953,16.871582c.097168.7910156.4921875,1.5058594,1.1835938,2.1459961.6894531.6430664,1.4291992.9624023,2.2202148.9624023h.7402344c.6889648,0,1.4287109-.097168,2.2197266-.2963867.7885742-.1962891,1.3803711-.7885742,1.7758789-1.7758789l12.1362305-27.2319336c1.28125-2.7612305,2.4165039-4.6113281,3.4038086-5.5498047.9853516-.9365234,2.2685547-1.40625,3.8481445-1.40625h6.6601562Z"/>
    <path class="b" d="m910.7817383,91.8623047c0,5.9199219-2.1225586,10.7299805-6.3637695,14.4301758-4.2436523,3.699707-12.1362305,5.5498047-23.6801758,5.5498047s-19.3876953-1.8500977-23.5317383-5.5498047c-4.144043-3.7001953-6.2163086-8.5102539-6.2163086-14.4301758v-43.6601562c0-5.9199219,2.0722656-10.7299805,6.2163086-14.4296875,4.144043-3.7001953,11.987793-5.550293,23.5317383-5.550293s19.4365234,1.8500977,23.6801758,5.550293c4.2412109,3.699707,6.3637695,8.5097656,6.3637695,14.4296875v43.6601562Zm-58.3120117,0c0,5.5268555,1.9726562,9.9897461,5.9199219,13.394043,3.9453125,3.4038086,11.3959961,5.105957,22.3481445,5.105957s18.4492188-1.7021484,22.4960938-5.105957c4.0444336-3.4042969,6.0678711-7.8671875,6.0678711-13.394043v-43.6601562c0-5.5244141-2.0234375-9.9897461-6.0678711-13.394043-4.046875-3.4038086-11.5439453-5.105957-22.4960938-5.105957s-18.402832,1.7021484-22.3481445,5.105957c-3.9472656,3.4042969-5.9199219,7.8696289-5.9199219,13.394043v43.6601562Z"/>
    <path class="b" d="m930.0219727,109.918457h-1.4799805V29.9980469h33.7441406c5.7211914,0,9.9648438,1.6049805,12.7280273,4.8100586,2.7612305,3.2075195,4.144043,7.2290039,4.144043,12.0620117v10.2124023c0,4.5390625-.5917969,8.2646484-1.7758789,11.1738281-1.184082,2.9111328-3.5522461,4.9091797-7.1040039,5.9941406h1.6279297c6.0170898,0,10.5078125,1.3574219,13.4677734,4.0698242,2.9599609,2.7148438,4.4399414,6.6367188,4.4399414,11.7661133v19.8320312h-1.4799805v-19.8320312c0-4.8334961-1.3320312-8.4594727-3.9956055-10.8779297-2.6640625-2.4169922-6.8081055-3.6259766-12.4321289-3.6259766h-41.8842773v34.3359375Zm32.2641602-78.4399414h-32.2641602v42.7719727h32.2641602c6.1166992,0,10.2119141-1.4799805,12.2841797-4.4404297,2.0717773-2.9599609,3.1079102-7.1523438,3.1079102-12.5795898v-10.3603516c0-4.5371094-1.2578125-8.2368164-3.7739258-11.0996094-2.5161133-2.8608398-6.3896484-4.2919922-11.6181641-4.2919922Z"/>
    <path class="b" d="m1006.9824219,109.918457h-1.4804688V29.9980469h1.4804688v39.3681641h32.1162109l17.0195312-39.3681641h1.6279297l-17.0195312,39.3681641h6.0673828c6.0175781,0,10.5078125,1.1357422,13.4677734,3.4042969,2.9609375,2.2705078,4.4404297,5.9707031,4.4404297,11.0996094v26.0483398h-1.4794922v-26.0483398c0-4.7358398-1.3837891-8.0888672-4.1445312-10.0639648-2.7636719-1.9726562-6.8583984-2.9599609-12.2841797-2.9599609h-39.8115234v39.0722656Z"/>
  </g>
  <g>
    <path class="c" d="m46.7353516,124.2255859c0,2.1162109-.4746094,3.6479492-1.4194336,4.5927734-.9472656.9472656-2.4790039,1.4194336-4.5922852,1.4194336h-24.5493164c-2.1162109,0-3.6474609-.472168-4.5922852-1.4194336-.9472656-.9448242-1.4194336-2.4765625-1.4194336-4.5927734v-44.0878906c0-3.3398438.5268555-7.1806641,1.5864258-11.5229492,1.0566406-4.3417969,2.6982422-9.4067383,4.9262695-15.1967773L31.2045898,15.5087891c.6679688-1.8916016,1.6958008-3.2827148,3.0893555-4.1748047,1.3911133-.8901367,3.1992188-1.3364258,5.4277344-1.3364258h44.9228516c2.1137695,0,3.8671875.4462891,5.2607422,1.3364258,1.390625.8920898,2.4213867,2.2832031,3.0893555,4.1748047l14.5288086,37.9091797c2.2260742,5.7900391,3.8671875,10.8549805,4.9267578,15.1967773,1.0566406,4.3422852,1.5864258,8.1831055,1.5864258,11.5229492v44.0878906c0,2.1162109-.4750977,3.6479492-1.4194336,4.5927734-.9472656.9472656-2.4790039,1.4194336-4.5927734,1.4194336h-25.2167969c-2.2285156,0-3.8696289-.472168-4.9267578-1.4194336-1.059082-.9448242-1.5864258-2.4765625-1.5864258-4.5927734v-23.3798828h-29.559082v23.3798828Zm9.519043-79.1577148l-7.8486328,25.3837891h26.21875l-7.8491211-25.3837891c-.4462891-1.0019531-.918457-1.7250977-1.4194336-2.1708984-.5009766-.4438477-1.0854492-.6679688-1.753418-.6679688h-4.1748047c-.6679688,0-1.2529297.2241211-1.7539062.6679688-.5009766.4458008-.9755859,1.1689453-1.4194336,2.1708984Z"/>
    <path class="c" d="m172.4858398,130.237793h-25.8847656c-2.1162109,0-3.6479492-.472168-4.5927734-1.4194336-.9472656-.9448242-1.4194336-2.4765625-1.4194336-4.5927734V16.0097656c0-2.1137695.472168-3.6450195,1.4194336-4.5922852.9448242-.9448242,2.4765625-1.4199219,4.5927734-1.4199219h51.1020508c15.1391602,0,25.4931641,3.0063477,31.0620117,9.0180664,5.5654297,6.012207,8.3496094,13.8613281,8.3496094,23.5473633v21.3759766c0,9.6860352-2.7841797,17.534668-8.3496094,23.546875-5.5688477,6.0117188-15.9228516,9.0180664-31.0620117,9.0180664h-19.2050781v27.7216797c0,2.1162109-.4750977,3.6479492-1.4194336,4.5927734-.9472656.9472656-2.4790039,1.4194336-4.5927734,1.4194336Zm5.6782227-89.0112305v25.2172852h15.0297852c3.2280273,0,5.3442383-.8349609,6.3461914-2.5048828,1.0019531-1.6704102,1.5029297-3.5620117,1.5029297-5.6782227v-8.8510742c0-2.1132812-.5009766-4.0078125-1.5029297-5.6777344s-3.1181641-2.5053711-6.3461914-2.5053711h-15.0297852Z"/>
    <path class="c" d="m343.9931641,130.237793h-77.487793c-2.1162109,0-3.6479492-.472168-4.5927734-1.4194336-.9472656-.9448242-1.4194336-2.4765625-1.4194336-4.5927734V16.0097656c0-2.1137695.472168-3.6450195,1.4194336-4.5922852.9448242-.9448242,2.4765625-1.4199219,4.5927734-1.4199219h77.487793c2.1137695,0,3.6455078.4750977,4.5927734,1.4199219.9443359.9472656,1.4194336,2.4785156,1.4194336,4.5922852v19.5390625c0,2.1162109-.4750977,3.6479492-1.4194336,4.5922852-.9472656.9472656-2.4790039,1.4199219-4.5927734,1.4199219h-46.0917969v12.8588867h32.5649414c2.1132812,0,3.6450195.4746094,4.5922852,1.4194336.9448242.9472656,1.4194336,2.4790039,1.4194336,4.5922852v17.8691406c0,2.1162109-.4746094,3.6479492-1.4194336,4.5922852-.9472656.9472656-2.4790039,1.4199219-4.5922852,1.4199219h-32.5649414v14.3618164h46.0917969c2.1137695,0,3.6455078.4750977,4.5927734,1.4194336.9443359.9472656,1.4194336,2.4790039,1.4194336,4.5927734v19.5385742c0,2.1162109-.4750977,3.6479492-1.4194336,4.5927734-.9472656.9472656-2.4790039,1.4194336-4.5927734,1.4194336Z"/>
  </g>
</svg>