<?xml version="1.0" encoding="UTF-8"?>
<svg id="a" data-name="logo" xmlns="http://www.w3.org/2000/svg" width="320" height="320" viewBox="0 0 320 320">
  <defs>
    <style>
      .b {
        fill: none;
      }

      .b, .c, .d, .e, .f, .g {
        stroke: #000;
        stroke-miterlimit: 10;
        stroke-width: 4px;
      }

      .c {
        fill: #17a8e5;
      }

      .d {
        fill: #e51785;
      }

      .e {
        fill: #e5bc17;
      }

      .f {
        fill: #e56317;
      }
    </style>
  </defs>
  <polygon class="e" points="10 90 160 120 310 90 290 150 30 150 10 90"/>
  <path class="f" d="m290,150c0-90-130-100-130-100,0,0-130,10-130,100,0,120,130,160,130,160,0,0,130-40,130-160Z"/>
  <polygon class="d" points="160 10 110 60 160 80 210 60 160 10"/>
  <path class="e" d="m269.9981738,149.6653744c-.0009342,30.334631-19.9990864,60.3346253-59.9732012,60.3346255-20.0249726,0-50.0249726-9.9999999-50.0249726-9.9999999,0,0-30,10-50.0266083,10-39.9743042,0-59.9743042-29.9999946-59.9733916-60.3344472.0008925-29.6655474,19.9990874-59.6655365,59.9990874-59.6655474,20.0009126-.0000054,50.0009126,9.9999946,50.0009126,9.9999946,0,0,30-10,49.9990874-9.9999946,40,.0000108,60,30,59.9990864,59.665369Z"/>
  <path class="c" d="m250,150c0,20-10,40-40,40-20,0-50-10-50-10,0,0-30,10-50,10-30,0-40-20-40-40s10-40,40-40c20,0,50,10,50,10,0,0,30-10,50-10,30,0,40,20,40,40Z"/>
  <path class="c" d="m210,230c0,30-30,40-50,40s-50-10-50-40,40-70,40-70l10,10,10-10s40,40,40,70Z"/>
  <line class="b" x1="130" y1="230" x2="190" y2="230"/>
  <circle class="g" cx="200" cy="150" r="10"/>
  <circle class="g" cx="120" cy="150" r="10"/>
</svg>