<?xml version="1.0" encoding="UTF-8"?>
<svg id="a" data-name="favicon" xmlns="http://www.w3.org/2000/svg" width="200" height="200" viewBox="0 0 200 200">
  <defs>
    <style>
      .b {
        fill: #e51785;
      }
    </style>
  </defs>
  <path class="b" d="m76.0805664,184.2382812c0,3.2944336-.7392578,5.6791992-2.2099609,7.1499023-1.4746094,1.4746094-3.859375,2.2099609-7.1499023,2.2099609H28.5004883c-3.2944336,0-5.6791992-.7353516-7.1499023-2.2099609-1.4746094-1.4707031-2.2099609-3.8554688-2.2099609-7.1499023v-68.6401367c0-5.2001953.8208008-11.1801758,2.4697266-17.9399414,1.6455078-6.7602539,4.2006836-14.6455078,7.6704102-23.6601562L51.9003906,14.9780273c1.0400391-2.9453125,2.640625-5.1103516,4.8100586-6.5,2.1655273-1.3852539,4.980957-2.0800781,8.4501953-2.0800781h69.9399414c3.2905273,0,6.0205078.6948242,8.1899414,2.0800781,2.1655273,1.3896484,3.7700195,3.5546875,4.8100586,6.5l22.6201172,59.0200195c3.465332,9.0146484,6.0205078,16.8999023,7.6699219,23.6601562,1.6455078,6.7597656,2.4697266,12.7397461,2.4697266,17.9399414v68.6401367c0,3.2944336-.7392578,5.6791992-2.2099609,7.1499023-1.4746094,1.4746094-3.859375,2.2099609-7.1499023,2.2099609h-39.2597656c-3.4697266,0-6.0249023-.7353516-7.6699219-2.2099609-1.6494141-1.4707031-2.4702148-3.8554688-2.4702148-7.1499023v-36.3999023h-46.0200195v36.3999023Zm14.8198242-123.2402344l-12.2197266,39.5200195h40.8198242l-12.2197266-39.5200195c-.6948242-1.5600586-1.4301758-2.6850586-2.2099609-3.3798828-.7802734-.6904297-1.6904297-1.0400391-2.7299805-1.0400391h-6.5c-1.0400391,0-1.9501953.3496094-2.7304688,1.0400391-.7797852.6948242-1.519043,1.8198242-2.2099609,3.3798828Z"/>
</svg>