<?xml version="1.0" encoding="UTF-8"?>
<svg id="a" data-name="small" xmlns="http://www.w3.org/2000/svg" width="400" height="400" viewBox="0 0 400 400">
  <defs>
    <style>
      .b {
        fill: none;
      }

      .b, .c, .d, .e, .f, .g {
        stroke: #000;
        stroke-miterlimit: 10;
        stroke-width: 4px;
      }

      .c {
        fill: #e55c17;
      }

      .d {
        fill: #e5178d;
      }

      .e {
        fill: #e5bd17;
      }

      .f {
        fill: #17b0e5;
      }
    </style>
  </defs>
  <polygon class="e" points="50 140 200 150 350 140 330 200 70 200 50 140"/>
  <path class="c" d="m330,200c0-90-130-100-130-100,0,0-130,10-130,100,0,110,130,150,130,150,0,0,130-40,130-150Z"/>
  <polygon class="d" points="200 50 150 110 200 130 250 110 200 50"/>
  <path class="e" d="m310,199.67c0,30.33-20,60.33-59.97,60.33-20.02,0-50.02-10-50.02-10,0,0-30,10-50.03,10-39.97,0-59.97-30-59.97-60.33,0-29.67,20-59.67,60-59.67,20,0,50,10,50,10,0,0,30-10,50-10,40,0,60,30,60,59.67Z"/>
  <path class="f" d="m290,200c0,20-10,40-40,40-20,0-50-10-50-10,0,0-30,10-50,10-30,0-40-20-40-40s10-40,40-40c20,0,50,10,50,10,0,0,30-10,50-10,30,0,40,20,40,40Z"/>
  <path class="f" d="m250,280c0,30-30,40-50,40s-50-10-50-40,40-70,40-70l10,10,10-10s40,40,40,70Z"/>
  <line class="b" x1="170" y1="280" x2="230" y2="280"/>
  <circle class="g" cx="240" cy="200" r="10"/>
  <circle class="g" cx="160" cy="200" r="10"/>
</svg>