<?xml version="1.0" encoding="UTF-8"?>
<svg id="a" data-name="line" xmlns="http://www.w3.org/2000/svg" width="1080" height="140" viewBox="0 0 1080 140">
  <defs>
    <style>
      .b {
        fill: none;
        stroke-width: 3px;
      }

      .b, .c {
        stroke: #000;
        stroke-miterlimit: 10;
      }

      .c {
        fill: #e51785;
        stroke-width: 4px;
      }
    </style>
  </defs>
  <g>
    <path class="b" d="m443.3271484,108.4384766v1.4799805h-24.7158203c-9.5712891,0-15.9101562-1.4799805-19.0180664-4.4399414-3.1079102-2.9604492-4.6621094-7.8442383-4.6621094-14.6523438v-41.4399414c0-7.0043945,1.5771484-11.987793,4.7363281-14.9477539,3.15625-2.9599609,9.4716797-4.4404297,18.9438477-4.4404297h24.7158203v1.4804688h-24.7158203c-8.6835938,0-14.5546875,1.3574219-17.6118164,4.0698242-3.0595703,2.7148438-4.5883789,7.3261719-4.5883789,13.8378906v41.4399414c0,6.4150391,1.4799805,10.9521484,4.4399414,13.6162109,2.9604492,2.6640625,8.8803711,3.9960938,17.7602539,3.9960938h24.7158203Z"/>
    <path class="b" d="m529.0175781,91.8623047c0,5.9199219-2.1225586,10.7299805-6.3637695,14.4301758-4.2436523,3.699707-12.1362305,5.5498047-23.6801758,5.5498047s-19.3876953-1.8500977-23.5317383-5.5498047c-4.144043-3.7001953-6.2163086-8.5102539-6.2163086-14.4301758v-43.6601562c0-5.9199219,2.0722656-10.7299805,6.2163086-14.4296875,4.144043-3.7001953,11.987793-5.550293,23.5317383-5.550293s19.4365234,1.8500977,23.6801758,5.550293c4.2412109,3.699707,6.3637695,8.5097656,6.3637695,14.4296875v43.6601562Zm-58.3120117,0c0,5.5268555,1.9726562,9.9897461,5.9199219,13.394043,3.9453125,3.4038086,11.3959961,5.105957,22.3481445,5.105957s18.4492188-1.7021484,22.4960938-5.105957c4.0444336-3.4042969,6.0678711-7.8671875,6.0678711-13.394043v-43.6601562c0-5.5244141-2.0234375-9.9897461-6.0678711-13.394043-4.046875-3.4038086-11.5439453-5.105957-22.4960938-5.105957s-18.402832,1.7021484-22.3481445,5.105957c-3.9472656,3.4042969-5.9199219,7.8696289-5.9199219,13.394043v43.6601562Z"/>
    <path class="b" d="m597.394043,66.2583008c1.7758789,0,3.0571289-.3930664,3.8476562-1.184082.7885742-.7885742,2.0214844-2.4648438,3.7001953-5.0317383l18.0561523-27.5283203c.5917969-.9848633,1.2578125-1.6508789,1.9980469-1.9980469.7397461-.3442383,1.5029297-.5180664,2.2939453-.5180664h2.5161133c1.3803711,0,2.3911133.3701172,3.0336914,1.1103516.640625.7397461.9619141,1.9008789.9619141,3.4780273v75.3320312h-1.4799805V34.5864258c0-.7885742-.1733398-1.503418-.5180664-2.1459961-.3466797-.640625-1.0126953-.9619141-1.9975586-.9619141h-2.2202148c-.6914062,0-1.2832031.0991211-1.7758789.2958984-.4951172.1987305-1.0361328.7905273-1.6279297,1.7758789l-18.0561523,27.2319336c-1.7758789,2.6640625-3.1333008,4.4907227-4.0698242,5.4760742-.9389648.9873047-2.4931641,1.4799805-4.6621094,1.4799805-2.1713867,0-3.7255859-.4926758-4.6621094-1.4799805-.9389648-.9853516-2.2939453-2.8120117-4.0698242-5.4760742l-18.0561523-27.2319336c-.5917969-.9853516-1.1611328-1.5771484-1.7021484-1.7758789-.543457-.1967773-1.1606445-.2958984-1.8500977-.2958984h-2.2197266c-.9873047,0-1.6279297.3212891-1.9238281.9619141-.2963867.6425781-.4443359,1.3574219-.4443359,2.1459961v75.3320312h-1.4799805V34.5864258c0-1.5771484.3193359-2.7382812.9619141-3.4780273.640625-.7402344,1.6025391-1.1103516,2.8862305-1.1103516h2.5161133c.7885742,0,1.5771484.1738281,2.3676758.5180664.7885742.347168,1.4799805,1.0131836,2.0722656,1.9980469l18.0556641,27.5283203c1.6767578,2.5668945,2.9091797,4.2431641,3.7001953,5.0317383.7885742.7910156,2.0722656,1.184082,3.8481445,1.184082Z"/>
    <path class="b" d="m704.3979492,66.2583008c1.7758789,0,3.0571289-.3930664,3.8476562-1.184082.7885742-.7885742,2.0214844-2.4648438,3.7001953-5.0317383l18.0561523-27.5283203c.5917969-.9848633,1.2578125-1.6508789,1.9980469-1.9980469.7397461-.3442383,1.5029297-.5180664,2.2939453-.5180664h2.5161133c1.3803711,0,2.3911133.3701172,3.0336914,1.1103516.640625.7397461.9619141,1.9008789.9619141,3.4780273v75.3320312h-1.4799805V34.5864258c0-.7885742-.1733398-1.503418-.5180664-2.1459961-.3466797-.640625-1.0126953-.9619141-1.9975586-.9619141h-2.2202148c-.6914062,0-1.2832031.0991211-1.7758789.2958984-.4951172.1987305-1.0361328.7905273-1.6279297,1.7758789l-18.0561523,27.2319336c-1.7758789,2.6640625-3.1333008,4.4907227-4.0698242,5.4760742-.9389648.9873047-2.4931641,1.4799805-4.6621094,1.4799805-2.1713867,0-3.7255859-.4926758-4.6621094-1.4799805-.9389648-.9853516-2.2939453-2.8120117-4.0698242-5.4760742l-18.0561523-27.2319336c-.5917969-.9853516-1.1611328-1.5771484-1.7021484-1.7758789-.543457-.1967773-1.1606445-.2958984-1.8500977-.2958984h-2.2197266c-.9873047,0-1.6279297.3212891-1.9238281.9619141-.2963867.6425781-.4443359,1.3574219-.4443359,2.1459961v75.3320312h-1.4799805V34.5864258c0-1.5771484.3193359-2.7382812.9619141-3.4780273.640625-.7402344,1.6025391-1.1103516,2.8862305-1.1103516h2.5161133c.7885742,0,1.5771484.1738281,2.3676758.5180664.7885742.347168,1.4799805,1.0131836,2.0722656,1.9980469l18.0556641,27.5283203c1.6767578,2.5668945,2.9091797,4.2431641,3.7001953,5.0317383.7885742.7910156,2.0722656,1.184082,3.8481445,1.184082Z"/>
    <path class="b" d="m825.3139648,108.4384766v1.4799805h-49.8759766V29.9980469h49.8759766v1.4804688h-48.3959961v37.1479492h36.4077148v1.4799805h-36.4077148v38.3320312h48.3959961Z"/>
    <path class="b" d="m854.9121094,109.918457h-1.4799805V29.9980469h33.7441406c5.7211914,0,9.9648438,1.6049805,12.7280273,4.8100586,2.7612305,3.2075195,4.144043,7.2290039,4.144043,12.0620117v10.2124023c0,4.5390625-.5917969,8.2646484-1.7758789,11.1738281-1.184082,2.9111328-3.5522461,4.9091797-7.1040039,5.9941406h1.6279297c6.0170898,0,10.5078125,1.3574219,13.4677734,4.0698242,2.9599609,2.7148438,4.4399414,6.6367188,4.4399414,11.7661133v19.8320312h-1.4799805v-19.8320312c0-4.8334961-1.3320312-8.4594727-3.9956055-10.8779297-2.6640625-2.4169922-6.8081055-3.6259766-12.4321289-3.6259766h-41.8842773v34.3359375Zm32.2641602-78.4399414h-32.2641602v42.7719727h32.2641602c6.1166992,0,10.2119141-1.4799805,12.2841797-4.4404297,2.0717773-2.9599609,3.1079102-7.1523438,3.1079102-12.5795898v-10.3603516c0-4.5371094-1.2578125-8.2368164-3.7739258-11.0996094-2.5161133-2.8608398-6.3896484-4.2919922-11.6181641-4.2919922Z"/>
    <path class="b" d="m991.5161133,108.4384766v1.4799805h-24.7158203c-9.5712891,0-15.9101562-1.4799805-19.0180664-4.4399414-3.1079102-2.9604492-4.6621094-7.8442383-4.6621094-14.6523438v-41.4399414c0-7.0043945,1.5771484-11.987793,4.7363281-14.9477539,3.15625-2.9599609,9.4716797-4.4404297,18.9438477-4.4404297h24.7158203v1.4804688h-24.7158203c-8.6835938,0-14.5546875,1.3574219-17.6118164,4.0698242-3.0595703,2.7148438-4.5883789,7.3261719-4.5883789,13.8378906v41.4399414c0,6.4150391,1.4799805,10.9521484,4.4399414,13.6162109,2.9604492,2.6640625,8.8803711,3.9960938,17.7602539,3.9960938h24.7158203Z"/>
    <path class="b" d="m1069.0664062,108.4384766v1.4799805h-49.8759766V29.9980469h49.8759766v1.4804688h-48.3955078v37.1479492h36.4082031v1.4799805h-36.4082031v38.3320312h48.3955078Z"/>
  </g>
  <g>
    <path class="c" d="m46.7353516,124.2255859c0,2.1162109-.4746094,3.6479492-1.4194336,4.5927734-.9472656.9472656-2.4790039,1.4194336-4.5922852,1.4194336h-24.5493164c-2.1162109,0-3.6474609-.472168-4.5922852-1.4194336-.9472656-.9448242-1.4194336-2.4765625-1.4194336-4.5927734v-44.0878906c0-3.3398438.5268555-7.1806641,1.5864258-11.5229492,1.0566406-4.3417969,2.6982422-9.4067383,4.9262695-15.1967773L31.2045898,15.5087891c.6679688-1.8916016,1.6958008-3.2827148,3.0893555-4.1748047,1.3911133-.8901367,3.1992188-1.3364258,5.4277344-1.3364258h44.9228516c2.1137695,0,3.8671875.4462891,5.2607422,1.3364258,1.390625.8920898,2.4213867,2.2832031,3.0893555,4.1748047l14.5288086,37.9091797c2.2260742,5.7900391,3.8671875,10.8549805,4.9267578,15.1967773,1.0566406,4.3422852,1.5864258,8.1831055,1.5864258,11.5229492v44.0878906c0,2.1162109-.4750977,3.6479492-1.4194336,4.5927734-.9472656.9472656-2.4790039,1.4194336-4.5927734,1.4194336h-25.2167969c-2.2285156,0-3.8696289-.472168-4.9267578-1.4194336-1.059082-.9448242-1.5864258-2.4765625-1.5864258-4.5927734v-23.3798828h-29.559082v23.3798828Zm9.519043-79.1577148l-7.8486328,25.3837891h26.21875l-7.8491211-25.3837891c-.4462891-1.0019531-.918457-1.7250977-1.4194336-2.1708984-.5009766-.4438477-1.0854492-.6679688-1.753418-.6679688h-4.1748047c-.6679688,0-1.2529297.2241211-1.7539062.6679688-.5009766.4458008-.9755859,1.1689453-1.4194336,2.1708984Z"/>
    <path class="c" d="m172.4858398,130.237793h-25.8847656c-2.1162109,0-3.6479492-.472168-4.5927734-1.4194336-.9472656-.9448242-1.4194336-2.4765625-1.4194336-4.5927734V16.0097656c0-2.1137695.472168-3.6450195,1.4194336-4.5922852.9448242-.9448242,2.4765625-1.4199219,4.5927734-1.4199219h51.1020508c15.1391602,0,25.4931641,3.0063477,31.0620117,9.0180664,5.5654297,6.012207,8.3496094,13.8613281,8.3496094,23.5473633v21.3759766c0,9.6860352-2.7841797,17.534668-8.3496094,23.546875-5.5688477,6.0117188-15.9228516,9.0180664-31.0620117,9.0180664h-19.2050781v27.7216797c0,2.1162109-.4750977,3.6479492-1.4194336,4.5927734-.9472656.9472656-2.4790039,1.4194336-4.5927734,1.4194336Zm5.6782227-89.0112305v25.2172852h15.0297852c3.2280273,0,5.3442383-.8349609,6.3461914-2.5048828,1.0019531-1.6704102,1.5029297-3.5620117,1.5029297-5.6782227v-8.8510742c0-2.1132812-.5009766-4.0078125-1.5029297-5.6777344s-3.1181641-2.5053711-6.3461914-2.5053711h-15.0297852Z"/>
    <path class="c" d="m343.9931641,130.237793h-77.487793c-2.1162109,0-3.6479492-.472168-4.5927734-1.4194336-.9472656-.9448242-1.4194336-2.4765625-1.4194336-4.5927734V16.0097656c0-2.1137695.472168-3.6450195,1.4194336-4.5922852.9448242-.9448242,2.4765625-1.4199219,4.5927734-1.4199219h77.487793c2.1137695,0,3.6455078.4750977,4.5927734,1.4199219.9443359.9472656,1.4194336,2.4785156,1.4194336,4.5922852v19.5390625c0,2.1162109-.4750977,3.6479492-1.4194336,4.5922852-.9472656.9472656-2.4790039,1.4199219-4.5927734,1.4199219h-46.0917969v12.8588867h32.5649414c2.1132812,0,3.6450195.4746094,4.5922852,1.4194336.9448242.9472656,1.4194336,2.4790039,1.4194336,4.5922852v17.8691406c0,2.1162109-.4746094,3.6479492-1.4194336,4.5922852-.9472656.9472656-2.4790039,1.4199219-4.5922852,1.4199219h-32.5649414v14.3618164h46.0917969c2.1137695,0,3.6455078.4750977,4.5927734,1.4194336.9443359.9472656,1.4194336,2.4790039,1.4194336,4.5927734v19.5385742c0,2.1162109-.4750977,3.6479492-1.4194336,4.5927734-.9472656.9472656-2.4790039,1.4194336-4.5927734,1.4194336Z"/>
  </g>
</svg>