<?xml version="1.0" encoding="UTF-8"?>
<svg id="a" data-name="line" xmlns="http://www.w3.org/2000/svg" width="1080" height="160" viewBox="0 0 1080 160">
  <defs>
    <style>
      .b {
        stroke: #fff;
        stroke-width: 3px;
      }

      .b, .c {
        fill: #fff;
        stroke-miterlimit: 10;
      }

      .c {
        stroke: #000;
        stroke-width: 4px;
      }
    </style>
  </defs>
  <g>
    <path class="b" d="m438.51,118.44v1.48h-24.72c-9.57,0-15.91-1.48-19.02-4.44-3.11-2.96-4.66-7.84-4.66-14.65v-41.44c0-7,1.58-11.99,4.74-14.95,3.16-2.96,9.47-4.44,18.94-4.44h24.72v1.48h-24.72c-8.68,0-14.55,1.36-17.61,4.07-3.06,2.71-4.59,7.33-4.59,13.84v41.44c0,6.42,1.48,10.95,4.44,13.62,2.96,2.66,8.88,4,17.76,4h24.72Z"/>
    <path class="b" d="m522.72,101.86c0,5.92-2.12,10.73-6.36,14.43-4.24,3.7-12.14,5.55-23.68,5.55s-19.39-1.85-23.53-5.55c-4.14-3.7-6.22-8.51-6.22-14.43v-43.66c0-5.92,2.07-10.73,6.22-14.43,4.14-3.7,11.99-5.55,23.53-5.55s19.44,1.85,23.68,5.55c4.24,3.7,6.36,8.51,6.36,14.43v43.66Zm-58.31,0c0,5.53,1.97,9.99,5.92,13.39,3.95,3.4,11.4,5.11,22.35,5.11s18.45-1.7,22.5-5.11c4.04-3.4,6.07-7.87,6.07-13.39v-43.66c0-5.52-2.02-9.99-6.07-13.39-4.05-3.4-11.54-5.11-22.5-5.11s-18.4,1.7-22.35,5.11c-3.95,3.4-5.92,7.87-5.92,13.39v43.66Z"/>
    <path class="b" d="m589.61,76.26c1.78,0,3.06-.39,3.85-1.18.79-.79,2.02-2.46,3.7-5.03l18.06-27.53c.59-.98,1.26-1.65,2-2,.74-.34,1.5-.52,2.29-.52h2.52c1.38,0,2.39.37,3.03,1.11.64.74.96,1.9.96,3.48v75.33h-1.48V44.59c0-.79-.17-1.5-.52-2.15-.35-.64-1.01-.96-2-.96h-2.22c-.69,0-1.28.1-1.78.3-.5.2-1.04.79-1.63,1.78l-18.06,27.23c-1.78,2.66-3.13,4.49-4.07,5.48-.94.99-2.49,1.48-4.66,1.48s-3.73-.49-4.66-1.48c-.94-.99-2.29-2.81-4.07-5.48l-18.06-27.23c-.59-.99-1.16-1.58-1.7-1.78-.54-.2-1.16-.3-1.85-.3h-2.22c-.99,0-1.63.32-1.92.96-.3.64-.44,1.36-.44,2.15v75.33h-1.48V44.59c0-1.58.32-2.74.96-3.48.64-.74,1.6-1.11,2.89-1.11h2.52c.79,0,1.58.17,2.37.52.79.35,1.48,1.01,2.07,2l18.06,27.53c1.68,2.57,2.91,4.24,3.7,5.03.79.79,2.07,1.18,3.85,1.18Z"/>
    <path class="b" d="m695.14,76.26c1.78,0,3.06-.39,3.85-1.18.79-.79,2.02-2.46,3.7-5.03l18.06-27.53c.59-.98,1.26-1.65,2-2,.74-.34,1.5-.52,2.29-.52h2.52c1.38,0,2.39.37,3.03,1.11.64.74.96,1.9.96,3.48v75.33h-1.48V44.59c0-.79-.17-1.5-.52-2.15-.35-.64-1.01-.96-2-.96h-2.22c-.69,0-1.28.1-1.78.3-.5.2-1.04.79-1.63,1.78l-18.06,27.23c-1.78,2.66-3.13,4.49-4.07,5.48-.94.99-2.49,1.48-4.66,1.48s-3.73-.49-4.66-1.48c-.94-.99-2.29-2.81-4.07-5.48l-18.06-27.23c-.59-.99-1.16-1.58-1.7-1.78-.54-.2-1.16-.3-1.85-.3h-2.22c-.99,0-1.63.32-1.92.96-.3.64-.44,1.36-.44,2.15v75.33h-1.48V44.59c0-1.58.32-2.74.96-3.48.64-.74,1.6-1.11,2.89-1.11h2.52c.79,0,1.58.17,2.37.52.79.35,1.48,1.01,2.07,2l18.06,27.53c1.68,2.57,2.91,4.24,3.7,5.03.79.79,2.07,1.18,3.85,1.18Z"/>
    <path class="b" d="m814.57,118.44v1.48h-49.88V40h49.88v1.48h-48.4v37.15h36.41v1.48h-36.41v38.33h48.4Z"/>
    <path class="b" d="m842.69,119.92h-1.48V40h33.74c5.72,0,9.96,1.6,12.73,4.81,2.76,3.21,4.14,7.23,4.14,12.06v10.21c0,4.54-.59,8.26-1.78,11.17-1.18,2.91-3.55,4.91-7.1,5.99h1.63c6.02,0,10.51,1.36,13.47,4.07,2.96,2.71,4.44,6.64,4.44,11.77v19.83h-1.48v-19.83c0-4.83-1.33-8.46-4-10.88-2.66-2.42-6.81-3.63-12.43-3.63h-41.88v34.34Zm32.26-78.44h-32.26v42.77h32.26c6.12,0,10.21-1.48,12.28-4.44,2.07-2.96,3.11-7.15,3.11-12.58v-10.36c0-4.54-1.26-8.24-3.77-11.1-2.52-2.86-6.39-4.29-11.62-4.29Z"/>
    <path class="b" d="m977.82,118.44v1.48h-24.72c-9.57,0-15.91-1.48-19.02-4.44-3.11-2.96-4.66-7.84-4.66-14.65v-41.44c0-7,1.58-11.99,4.74-14.95,3.16-2.96,9.47-4.44,18.94-4.44h24.72v1.48h-24.72c-8.68,0-14.55,1.36-17.61,4.07-3.06,2.71-4.59,7.33-4.59,13.84v41.44c0,6.42,1.48,10.95,4.44,13.62,2.96,2.66,8.88,4,17.76,4h24.72Z"/>
    <path class="b" d="m1053.89,118.44v1.48h-49.88V40h49.88v1.48h-48.4v37.15h36.41v1.48h-36.41v38.33h48.4Z"/>
  </g>
  <g>
    <path class="c" d="m56.74,134.23c0,2.12-.47,3.65-1.42,4.59s-2.48,1.42-4.59,1.42h-24.55c-2.12,0-3.65-.47-4.59-1.42-.95-.94-1.42-2.48-1.42-4.59v-44.09c0-3.34.53-7.18,1.59-11.52,1.06-4.34,2.7-9.41,4.93-15.2l14.53-37.91c.67-1.89,1.7-3.28,3.09-4.17,1.39-.89,3.2-1.34,5.43-1.34h44.92c2.11,0,3.87.45,5.26,1.34,1.39.89,2.42,2.28,3.09,4.17l14.53,37.91c2.23,5.79,3.87,10.85,4.93,15.2,1.06,4.34,1.59,8.18,1.59,11.52v44.09c0,2.12-.48,3.65-1.42,4.59-.95.95-2.48,1.42-4.59,1.42h-25.22c-2.23,0-3.87-.47-4.93-1.42-1.06-.94-1.59-2.48-1.59-4.59v-23.38h-29.56v23.38Zm9.52-79.16l-7.85,25.38h26.22l-7.85-25.38c-.45-1-.92-1.73-1.42-2.17-.5-.44-1.09-.67-1.75-.67h-4.17c-.67,0-1.25.22-1.75.67-.5.45-.98,1.17-1.42,2.17Z"/>
    <path class="c" d="m182.49,140.24h-25.88c-2.12,0-3.65-.47-4.59-1.42-.95-.94-1.42-2.48-1.42-4.59V26.01c0-2.11.47-3.65,1.42-4.59s2.48-1.42,4.59-1.42h51.1c15.14,0,25.49,3.01,31.06,9.02,5.57,6.01,8.35,13.86,8.35,23.55v21.38c0,9.69-2.78,17.53-8.35,23.55-5.57,6.01-15.92,9.02-31.06,9.02h-19.21v27.72c0,2.12-.48,3.65-1.42,4.59-.95.95-2.48,1.42-4.59,1.42Zm5.68-89.01v25.22h15.03c3.23,0,5.34-.83,6.35-2.5,1-1.67,1.5-3.56,1.5-5.68v-8.85c0-2.11-.5-4.01-1.5-5.68s-3.12-2.51-6.35-2.51h-15.03Z"/>
    <path class="c" d="m353.99,140.24h-77.49c-2.12,0-3.65-.47-4.59-1.42-.95-.94-1.42-2.48-1.42-4.59V26.01c0-2.11.47-3.65,1.42-4.59s2.48-1.42,4.59-1.42h77.49c2.11,0,3.65.48,4.59,1.42.94.95,1.42,2.48,1.42,4.59v19.54c0,2.12-.48,3.65-1.42,4.59s-2.48,1.42-4.59,1.42h-46.09v12.86h32.56c2.11,0,3.65.47,4.59,1.42.94.95,1.42,2.48,1.42,4.59v17.87c0,2.12-.47,3.65-1.42,4.59-.95.95-2.48,1.42-4.59,1.42h-32.56v14.36h46.09c2.11,0,3.65.48,4.59,1.42.94.95,1.42,2.48,1.42,4.59v19.54c0,2.12-.48,3.65-1.42,4.59-.95.95-2.48,1.42-4.59,1.42Z"/>
  </g>
</svg>